<?xml version="1.0" encoding="UTF-8"?>
<svg xmlns="http://www.w3.org/2000/svg" xmlns:xlink="http://www.w3.org/1999/xlink" width="24px" height="px" viewBox="0 0 24 24" version="1.1">
<g id="surface1">
<path style=" stroke:none;fill-rule:nonzero;fill:rgb(0%,0%,0%);fill-opacity:1;" d="M 19.480469 6.582031 C 19.613281 6.582031 19.722656 6.472656 19.722656 6.339844 L 19.722656 4.382812 C 19.722656 4.25 19.613281 4.144531 19.480469 4.144531 L 4.558594 4.144531 C 4.425781 4.144531 4.320312 4.25 4.320312 4.382812 L 4.320312 6.339844 C 4.320312 6.472656 4.425781 6.582031 4.558594 6.582031 Z M 19.480469 7.539062 L 4.558594 7.539062 C 3.898438 7.539062 3.359375 7.003906 3.359375 6.339844 L 3.359375 4.382812 C 3.359375 3.71875 3.898438 3.183594 4.558594 3.183594 L 19.480469 3.183594 C 20.144531 3.183594 20.683594 3.71875 20.683594 4.382812 L 20.683594 6.339844 C 20.683594 7.003906 20.144531 7.539062 19.480469 7.539062 Z M 19.480469 7.539062 "/>
<path style=" stroke:none;fill-rule:nonzero;fill:rgb(0%,0%,0%);fill-opacity:1;" d="M 18.910156 7.140625 L 17.542969 22.761719 C 17.53125 22.90625 17.386719 23.039062 17.238281 23.039062 L 6.800781 23.039062 C 6.65625 23.039062 6.511719 22.90625 6.496094 22.761719 L 5.132812 7.140625 C 5.109375 6.878906 4.875 6.683594 4.613281 6.703125 C 4.347656 6.726562 4.152344 6.960938 4.175781 7.226562 L 5.542969 22.84375 C 5.597656 23.488281 6.15625 24 6.800781 24 L 17.238281 24 C 17.886719 24 18.445312 23.488281 18.5 22.84375 L 19.867188 7.226562 C 19.890625 6.960938 19.695312 6.726562 19.429688 6.703125 C 19.164062 6.683594 18.933594 6.878906 18.910156 7.140625 Z M 9.890625 3.632812 L 9.890625 1.203125 C 9.890625 1.066406 10 0.960938 10.132812 0.960938 L 13.910156 0.960938 C 14.042969 0.960938 14.152344 1.066406 14.152344 1.203125 L 14.152344 3.632812 C 14.152344 3.898438 14.367188 4.113281 14.632812 4.113281 C 14.894531 4.113281 15.109375 3.898438 15.109375 3.632812 L 15.109375 1.203125 C 15.109375 0.539062 14.574219 0 13.910156 0 L 10.132812 0 C 9.46875 0 8.929688 0.539062 8.929688 1.203125 L 8.929688 3.632812 C 8.929688 3.898438 9.144531 4.113281 9.410156 4.113281 C 9.675781 4.113281 9.890625 3.898438 9.890625 3.632812 Z M 9.890625 3.632812 "/>
<path style=" stroke:none;fill-rule:nonzero;fill:rgb(0%,0%,0%);fill-opacity:1;" d="M 11.625 9.628906 L 11.625 20.433594 C 11.625 20.699219 11.839844 20.914062 12.105469 20.914062 C 12.371094 20.914062 12.585938 20.699219 12.585938 20.433594 L 12.585938 9.628906 C 12.585938 9.363281 12.371094 9.148438 12.105469 9.148438 C 11.839844 9.148438 11.625 9.363281 11.625 9.628906 Z M 7.113281 9.671875 L 8.050781 20.472656 C 8.074219 20.738281 8.304688 20.933594 8.570312 20.910156 C 8.835938 20.886719 9.03125 20.65625 9.007812 20.390625 L 8.070312 9.585938 C 8.046875 9.324219 7.816406 9.128906 7.550781 9.152344 C 7.289062 9.171875 7.09375 9.40625 7.113281 9.671875 Z M 15.972656 9.585938 L 15.035156 20.390625 C 15.011719 20.65625 15.207031 20.886719 15.472656 20.910156 C 15.734375 20.933594 15.96875 20.738281 15.992188 20.472656 L 16.925781 9.671875 C 16.949219 9.40625 16.753906 9.171875 16.492188 9.152344 C 16.226562 9.128906 15.992188 9.324219 15.972656 9.585938 Z M 15.972656 9.585938 "/>
</g>
</svg>
