<?xml version="1.0" encoding="UTF-8"?>
<svg xmlns="http://www.w3.org/2000/svg" xmlns:xlink="http://www.w3.org/1999/xlink" width="24px" height="px" viewBox="0 0 24 24" version="1.1">
<g id="surface1">
<path style="fill:none;stroke-width:2;stroke-linecap:round;stroke-linejoin:round;stroke:rgb(0%,0%,0%);stroke-opacity:1;stroke-miterlimit:4;" d="M 15.5 5.5 L 18.328125 8.328125 M 3 21 L 3.046875 20.667969 C 3.214844 19.492188 3.300781 18.90625 3.492188 18.355469 C 3.660156 17.867188 3.890625 17.40625 4.179688 16.976562 C 4.503906 16.496094 4.921875 16.078125 5.761719 15.238281 L 17.410156 3.589844 C 18.191406 2.808594 19.457031 2.808594 20.238281 3.589844 C 21.019531 4.371094 21.019531 5.636719 20.238281 6.417969 L 8.378906 18.277344 C 7.617188 19.039062 7.234375 19.421875 6.800781 19.722656 C 6.417969 19.992188 6 20.214844 5.5625 20.386719 C 5.070312 20.582031 4.542969 20.6875 3.488281 20.902344 Z M 3 21 "/>
</g>
</svg>
